<svg viewBox="0 0 318 457" xmlns="http://www.w3.org/2000/svg" fill-rule="evenodd" clip-rule="evenodd" stroke-linejoin="round" stroke-miterlimit="2"><path d="M291.713.1L26.394 0C11.907-.005.157 11.734.153 26.223L0 430.625c-.007 14.478 11.734 26.23 26.222 26.235l265.318.1c14.489.006 26.238-11.735 26.243-26.224l.153-404.394C317.941 11.854 306.201.105 291.713.1z" fill="rgb(241,244,247)" fill-rule="nonzero"/><path d="M6.344 447.726c4.808 5.584 11.926 9.136 19.876 9.134l265.324.1c14.487.006 26.234-11.735 26.239-26.224l.153-404.394a26.128 26.128 0 0 0-6.344-17.106L6.344 447.726z" fill="rgb(229,234,238)" fill-rule="nonzero"/><path d="M48.539 73.476c-1.613-3.961-6.772-9.383-8.21-11.036-5.356-6.153-6.526-9.345-6.526-9.345s-1.173 3.191-6.533 9.341c-1.44 1.651-6.603 7.069-8.219 11.029-2.289 5.61-.893 13.204 5.477 14.451 3.53.693 6.213-.896 7.761-2.229-.011.405-.035.841-.083 1.308-.431 4.218-3.842 7.15-3.842 7.15l10.847.004s-3.41-2.934-3.837-7.152a16.297 16.297 0 0 1-.081-1.308c1.546 1.334 4.227 2.924 7.758 2.235 6.371-1.243 7.772-8.836 5.488-14.448z" fill="rgb(34,31,31)" fill-rule="nonzero"/><path d="M158.649 140.879v-.852s.054.147.176.44c.122-.293.176-.44.176-.44v.852c1.49 3.411 8.16 17.032 28.374 40.217 6.329 7.259 29.03 31.085 36.136 48.495 10.067 24.666 3.926 58.055-24.079 63.545-15.526 3.048-27.319-3.941-34.124-9.805.043 1.78.154 3.7.363 5.753 1.891 18.541 16.891 31.436 16.891 31.436l-23.628.014h-.217l-23.629-.014s15-12.895 16.891-31.436c.209-2.053.321-3.973.364-5.753-6.805 5.864-18.598 12.853-34.125 9.805-28.005-5.49-34.146-38.879-24.079-63.545 7.106-17.41 29.807-41.236 36.137-48.495 20.214-23.185 26.883-36.806 28.373-40.217z" fill="rgb(65,64,67)" fill-rule="nonzero"/><path d="M223.72 229.641c-7.092-17.417-29.776-41.259-36.1-48.523-23.552-27.056-28.694-41.091-28.694-41.091l-.046 121.625-.006 14.731-.016 44.151 23.845.004s-14.992-12.906-16.867-31.448a73.812 73.812 0 0 1-.36-5.751c6.801 5.862 18.588 12.858 34.116 9.826 28.01-5.471 34.176-38.847 24.128-63.524z" fill="rgb(34,31,31)" fill-rule="nonzero"/><path d="M130.276 181.096c-6.33 7.259-29.031 31.085-36.137 48.495a60.433 60.433 0 0 0-2.596 7.936c8.417-13.13 22.736-30.872 34.157-41.058 27.256-24.303 33.038-33.892 33.038-33.892l.009-21.925c-1.273 2.985-7.766 16.694-28.471 40.444z" fill="rgb(124,124,125)" fill-rule="nonzero"/><path d="M26.236 23.083v-2.197c3.549-.179 6.779-1.131 9.693-2.857h1.098v24.292c0 1.058.245 1.982.733 2.771.488.79 1.676 1.184 3.564 1.184v2.344H26.92v-2.295c2.848 0 4.273-1.383 4.273-4.15V26.232c0-2.099-1.189-3.149-3.565-3.149h-1.392z" fill="rgb(34,31,31)" fill-rule="nonzero"/><path d="M192.004 196.494c11.609 10.368 26.201 28.549 34.544 41.745a60.34 60.34 0 0 0-2.753-8.598c-7.092-17.417-29.776-41.259-36.099-48.523-23.553-27.056-28.695-41.091-28.695-41.091l-.008 22.551s5.775 9.592 33.011 33.916z" fill="rgb(65,64,67)" fill-rule="nonzero"/><path d="M270.004 383.635c1.613 3.961 6.772 9.383 8.21 11.036 5.356 6.153 6.526 9.345 6.526 9.345s1.172-3.191 6.533-9.341c1.44-1.651 6.603-7.069 8.219-11.029 2.289-5.61.893-13.204-5.477-14.451-3.531-.693-6.213.896-7.761 2.229.01-.405.035-.841.083-1.308.43-4.218 3.842-7.15 3.842-7.15l-5.423-.002-5.424-.002s3.409 2.934 3.837 7.152c.047.467.073.903.081 1.308-1.546-1.334-4.228-2.924-7.759-2.235-6.37 1.243-7.771 8.836-5.487 14.448z" fill="rgb(34,31,31)" fill-rule="nonzero"/><path d="M292.306 434.028v2.197c-3.548.179-6.779 1.131-9.692 2.857h-1.099V414.79c0-1.058-.244-1.982-.732-2.771-.488-.79-1.677-1.184-3.565-1.184v-2.344h14.405v2.295c-2.849 0-4.273 1.383-4.273 4.15v15.943c0 2.099 1.188 3.149 3.565 3.149h1.391z" fill="rgb(34,31,31)" fill-rule="nonzero"/></svg>