<svg viewBox="0 0 321 459" xmlns="http://www.w3.org/2000/svg" fill-rule="evenodd" clip-rule="evenodd" stroke-linejoin="round" stroke-miterlimit="2"><path d="M294.727 1.96L29.414 0C14.927-.106 3.096 11.552 2.99 26.039L0 430.426c-.106 14.488 11.551 26.32 26.04 26.427l265.311 1.958c14.487.108 26.318-11.55 26.425-26.036l2.99-404.39c.105-14.487-11.552-26.318-26.039-26.425z" fill="rgb(241,244,247)" fill-rule="nonzero"/><path d="M6.225 447.576c4.77 5.622 11.862 9.217 19.813 9.277l167.252 1.235 98.061.724c14.487.107 26.318-11.55 26.425-26.037l1.494-202.194 1.495-202.195a26.13 26.13 0 0 0-6.226-17.148L6.225 447.576z" fill="rgb(229,234,238)" fill-rule="nonzero"/><path d="M92.956 228.907l66.76 90.749.667-90.25.666-90.248-68.093 89.75z" fill="rgb(244,128,99)" fill-rule="nonzero"/><path d="M92.955 228.908l67.946-69.741.148-20.009-68.094 89.75z" fill="rgb(249,181,164)" fill-rule="nonzero"/><path d="M161.05 139.158l-1.334 180.498 68.094-89.752-66.76-90.746z" fill="rgb(209,39,40)" fill-rule="nonzero"/><path d="M227.81 229.905l-66.76-90.747-.149 20.009 66.908 70.738z" fill="rgb(244,128,99)" fill-rule="nonzero"/><path d="M95.334 228.926l64.405 87.547 65.692-86.585-64.405-87.547-65.692 86.585zm64.358 93.913l-69.115-93.95 70.495-92.914 69.116 93.947-70.496 92.917z" fill="rgb(172,31,35)" fill-rule="nonzero"/><path d="M36.45 53.147L20.964 73.558l15.182 20.64 15.488-20.412L36.45 53.147z" fill="rgb(209,39,40)" fill-rule="nonzero"/><path d="M284.325 404.232l15.488-20.412-15.184-20.638-15.487 20.411 15.183 20.639z" fill="rgb(209,39,40)" fill-rule="nonzero"/><path d="M119.194 201.977a26.086 26.086 0 0 0-1.486-2.541l.984-1.298c.877.538 1.72 1.127 2.526 1.762l-2.024 2.077z" fill="rgb(188,137,124)" fill-rule="nonzero"/><text x="74.761" y="82.181" font-family="'DevanagariMT-Bold', 'Devanagari MT'" font-weight="700" font-size="50px" fill="rgb(209,39,40)" transform="translate(-51.245 -34.642)">5</text><text x="74.761" y="82.181" font-family="'DevanagariMT-Bold', 'Devanagari MT'" font-weight="700" font-size="50px" fill="rgb(209,39,40)" transform="rotate(-180 185.743 246.303)">5</text></svg>