<svg viewBox="0 0 318 457" xmlns="http://www.w3.org/2000/svg" fill-rule="evenodd" clip-rule="evenodd" stroke-linejoin="round" stroke-miterlimit="2"><path d="M291.713.1L26.394 0C11.907-.005.157 11.734.152 26.223L0 430.625c-.007 14.478 11.734 26.23 26.222 26.235l265.318.101c14.49.005 26.238-11.736 26.243-26.225l.153-404.394C317.941 11.854 306.201.105 291.713.1z" fill="rgb(241,244,247)" fill-rule="nonzero"/><path d="M6.344 447.726c4.808 5.584 11.926 9.136 19.876 9.134l265.324.1c14.487.006 26.234-11.735 26.24-26.224l.152-404.394a26.128 26.128 0 0 0-6.344-17.106L6.344 447.726z" fill="rgb(229,234,238)" fill-rule="nonzero"/><path d="M48.54 73.476c-1.614-3.961-6.773-9.383-8.21-11.036-5.358-6.153-6.527-9.345-6.527-9.345s-1.173 3.191-6.533 9.341c-1.44 1.651-6.603 7.069-8.219 11.029-2.289 5.61-.893 13.204 5.477 14.451 3.53.693 6.213-.896 7.761-2.229-.01.405-.035.841-.083 1.308-.43 4.218-3.842 7.15-3.842 7.15l10.846.004s-3.409-2.934-3.836-7.152a16.8 16.8 0 0 1-.082-1.308c1.547 1.334 4.228 2.924 7.76 2.235 6.37-1.243 7.771-8.836 5.487-14.448z" fill="rgb(34,31,31)" fill-rule="nonzero"/><path d="M158.65 140.879v-.852s.053.147.175.44c.122-.293.176-.44.176-.44v.852c1.49 3.411 8.16 17.032 28.374 40.217 6.33 7.259 29.03 31.085 36.136 48.495 10.067 24.666 3.926 58.055-24.079 63.545-15.526 3.048-27.319-3.941-34.124-9.805.043 1.78.154 3.7.363 5.753 1.891 18.541 16.891 31.436 16.891 31.436l-23.628.014h-.217l-23.629-.014s15-12.895 16.891-31.436c.21-2.053.321-3.973.364-5.753-6.805 5.864-18.598 12.853-34.125 9.805-28.005-5.49-34.146-38.879-24.079-63.545 7.106-17.41 29.807-41.236 36.137-48.495 20.214-23.185 26.883-36.806 28.373-40.217z" fill="rgb(65,64,67)" fill-rule="nonzero"/><path d="M223.72 229.641c-7.092-17.417-29.776-41.259-36.1-48.523-23.552-27.056-28.694-41.091-28.694-41.091l-.046 121.625-.006 14.731-.016 44.151 23.845.004s-14.992-12.906-16.867-31.448a73.812 73.812 0 0 1-.36-5.751c6.801 5.862 18.588 12.858 34.116 9.826 28.01-5.471 34.176-38.847 24.128-63.524z" fill="rgb(34,31,31)" fill-rule="nonzero"/><path d="M269.396 383.482c1.614 3.967 6.773 9.384 8.211 11.035 5.356 6.158 6.527 9.355 6.527 9.355s1.171-3.195 6.532-9.348c1.44-1.647 6.603-7.068 8.22-11.026 2.288-5.607.893-13.201-5.477-14.45-3.532-.696-6.213.898-7.762 2.226.01-.404.035-.841.083-1.311.43-4.209 3.842-7.148 3.842-7.148l-5.423.001h-5.423s3.41 2.93 3.835 7.15c.048.468.072.898.083 1.31-1.547-1.334-4.228-2.925-7.76-2.24-6.37 1.241-7.772 8.842-5.488 14.446z" fill="rgb(34,31,31)" fill-rule="nonzero"/><path d="M130.276 181.096c-6.33 7.259-29.03 31.085-36.137 48.495a60.433 60.433 0 0 0-2.596 7.936c8.417-13.13 22.736-30.872 34.157-41.058 27.256-24.303 33.038-33.892 33.038-33.892l.01-21.925c-1.274 2.985-7.767 16.694-28.472 40.444z" fill="rgb(124,124,125)" fill-rule="nonzero"/><path d="M192.004 196.494c11.61 10.368 26.201 28.549 34.544 41.745a60.34 60.34 0 0 0-2.753-8.598c-7.092-17.417-29.776-41.259-36.099-48.523-23.553-27.056-28.695-41.091-28.695-41.091l-.008 22.551s5.775 9.592 33.011 33.916z" fill="rgb(65,64,67)" fill-rule="nonzero"/><path d="M37.594 31.178c2.8 1.953 4.606 3.605 5.42 4.956.814 1.351 1.22 2.751 1.22 4.199 0 2.279-1 4.244-3.003 5.896-2 1.652-4.467 2.478-7.397 2.478-2.702 0-5.094-.687-7.178-2.063-2.083-1.375-3.125-3.381-3.125-6.018 0-2.815 2.15-5.298 6.445-7.446-3.499-2.1-5.248-4.598-5.248-7.495 0-2.262.887-4.187 2.661-5.774 1.774-1.587 3.987-2.38 6.64-2.38 2.702 0 4.863.687 6.482 2.063 1.62 1.375 2.43 3.023 2.43 4.943 0 2.54-1.783 4.753-5.347 6.641zm-1.856-1.196c2.198-1.107 3.296-2.694 3.296-4.761 0-1.546-.468-2.832-1.404-3.857-.935-1.026-2.136-1.538-3.6-1.538-1.53 0-2.694.394-3.492 1.184-.797.789-1.196 1.582-1.196 2.38 0 1.758 2.132 3.955 6.396 6.592zm-3.906 4.443c-2.767 1.351-4.15 3.272-4.15 5.762 0 1.693.622 3.157 1.867 4.394s2.69 1.856 4.334 1.856c1.465-.016 2.73-.44 3.796-1.27 1.066-.83 1.6-1.855 1.6-3.076.016-.911-.412-1.892-1.282-2.942-.87-1.05-2.926-2.624-6.165-4.724z" fill-rule="nonzero"/><path d="M280.038 425.824c-2.799-1.953-4.606-3.605-5.42-4.956-.814-1.351-1.22-2.751-1.22-4.199 0-2.279 1.001-4.244 3.003-5.896 2.001-1.652 4.467-2.478 7.397-2.478 2.702 0 5.094.687 7.178 2.063 2.083 1.375 3.125 3.381 3.125 6.018 0 2.815-2.149 5.298-6.445 7.446 3.499 2.1 5.248 4.598 5.248 7.495 0 2.262-.887 4.187-2.661 5.774-1.774 1.587-3.987 2.38-6.64 2.38-2.702 0-4.863-.687-6.482-2.063-1.62-1.375-2.429-3.023-2.429-4.943 0-2.54 1.782-4.753 5.346-6.641zm1.856 1.196c-2.198 1.107-3.296 2.694-3.296 4.761 0 1.546.468 2.832 1.404 3.857.935 1.026 2.136 1.538 3.601 1.538 1.53 0 2.693-.394 3.491-1.184.797-.789 1.196-1.582 1.196-2.38 0-1.758-2.132-3.955-6.396-6.592zm3.906-4.443c2.767-1.351 4.15-3.272 4.15-5.762 0-1.693-.622-3.157-1.867-4.394s-2.69-1.856-4.334-1.856c-1.465.016-2.73.44-3.796 1.27-1.066.83-1.599 1.855-1.599 3.076-.017.911.411 1.892 1.281 2.942.871 1.05 2.926 2.624 6.165 4.724z" fill-rule="nonzero"/></svg>