<?xml version="1.0" encoding="UTF-8" standalone="no"?>
<!DOCTYPE svg PUBLIC "-//W3C//DTD SVG 1.1//EN" "http://www.w3.org/Graphics/SVG/1.1/DTD/svg11.dtd">
<svg width="100%" height="100%" viewBox="0 0 321 459" version="1.1" xmlns="http://www.w3.org/2000/svg" xmlns:xlink="http://www.w3.org/1999/xlink" xml:space="preserve" xmlns:serif="http://www.serif.com/" style="fill-rule:evenodd;clip-rule:evenodd;stroke-linejoin:round;stroke-miterlimit:2;">
    <path d="M293.8,1.403L28.484,0.266C13.998,0.204 2.202,11.9 2.141,26.386L0.408,430.78C0.348,445.268 12.04,457.063 26.528,457.125L291.849,458.261C306.327,458.324 318.124,446.629 318.186,432.142L319.92,27.747C319.982,13.26 308.287,1.465 293.8,1.403Z" style="fill:rgb(241,244,247);fill-rule:nonzero;"/>
    <path d="M160.502,151.621C180.488,152.111 196.579,168.407 196.665,188.524C196.712,196.694 194.044,204.653 189.082,211.144C190.621,210.94 192.171,210.833 193.724,210.823C214.204,210.736 230.879,227.267 230.966,247.748C231.054,268.228 214.523,284.903 194.041,284.991C183.755,285.035 174.431,280.885 167.679,274.148C167.721,274.573 167.763,275.003 167.809,275.438C169.772,293.976 184.823,306.808 184.823,306.808L160.745,306.909L160.745,306.912L160.405,306.911L160.065,306.912L160.065,306.909L135.987,306.808C135.987,306.808 151.038,293.976 153.001,275.438C153.047,275.003 153.089,274.573 153.131,274.148C146.379,280.885 137.055,285.035 126.769,284.991C106.287,284.903 89.756,268.228 89.844,247.748C89.931,227.267 106.606,210.736 127.086,210.823C128.639,210.833 130.189,210.94 131.728,211.144C126.766,204.653 124.098,196.694 124.145,188.524C124.232,168.407 140.323,152.111 160.308,151.621L160.308,151.617L160.405,151.619L160.502,151.617L160.502,151.621Z" style="fill:rgb(65,64,67);fill-rule:nonzero;"/>
    <path d="M127.086,210.823C106.606,210.736 89.931,227.267 89.844,247.748C89.834,250.236 90.072,252.668 90.529,255.022C92.336,245.62 97.025,234.841 104.287,226.818C114.497,215.538 131.728,211.144 131.728,211.144C130.189,210.94 128.639,210.833 127.086,210.823Z" style="fill:rgb(124,124,125);fill-rule:nonzero;"/>
    <path d="M124.145,188.524C124.141,189.553 124.179,190.581 124.259,191.607C125.959,185.697 129.073,177.865 134.495,172.473C144.272,162.753 160.456,160.645 160.456,160.645L160.502,151.618C140.426,152.006 124.232,168.342 124.145,188.524Z" style="fill:rgb(124,124,125);fill-rule:nonzero;"/>
    <path d="M183.681,307.012L159.836,306.909L160.502,151.618C180.564,152.177 196.622,168.651 196.532,188.834C196.502,197.336 193.593,205.153 188.755,211.387C190.295,211.198 191.845,211.104 193.396,211.107C213.884,211.196 230.409,227.869 230.327,248.35C230.234,268.83 213.567,285.362 193.08,285.275C182.796,285.23 173.503,281.001 166.823,274.207C166.855,274.631 166.889,275.062 166.933,275.497C168.737,294.05 183.681,307.012 183.681,307.012Z" style="fill:rgb(34,31,31);fill-rule:nonzero;"/>
    <path d="M230.327,248.35C230.409,227.869 213.884,211.196 193.397,211.108C191.845,211.105 190.295,211.198 188.755,211.387C187.215,211.576 205.948,215.931 216.059,227.297C223.252,235.381 227.852,246.2 229.579,255.617C230.052,253.269 230.314,250.839 230.327,248.35Z" style="fill:rgb(65,64,67);fill-rule:nonzero;"/>
    <path d="M196.391,191.916C196.48,190.891 196.527,189.863 196.531,188.834C196.621,168.651 180.564,152.177 160.502,151.618L160.456,160.645C160.456,160.645 176.627,162.893 186.321,172.695C191.693,178.133 194.747,185.99 196.391,191.915L196.391,191.916Z" style="fill:rgb(65,64,67);fill-rule:nonzero;"/>
    <path d="M43.151,71.22C42.798,71.219 42.445,71.24 42.094,71.284C43.236,69.817 43.858,68.012 43.864,66.154C43.884,61.563 40.231,57.818 35.668,57.69C31.118,57.778 27.419,61.534 27.399,66.084C27.389,67.942 27.996,69.751 29.125,71.227C28.762,71.179 28.396,71.156 28.03,71.156C23.402,71.156 19.595,74.963 19.595,79.591C19.595,84.218 23.402,88.026 28.03,88.026C30.265,88.026 32.411,87.137 33.992,85.557C33.982,85.654 33.974,85.752 33.963,85.851C33.516,90.066 30.093,92.985 30.093,92.985L40.939,93.031C40.939,93.031 37.541,90.084 37.131,85.864L37.104,85.571C38.679,87.174 40.832,88.081 43.079,88.088C47.673,88.04 51.425,84.247 51.425,79.653C51.425,75.087 47.717,71.307 43.151,71.22Z" style="fill:rgb(34,31,31);fill-rule:nonzero;"/>
    <path d="M277.178,387.307C277.541,387.309 277.891,387.285 278.238,387.243C277.097,388.71 276.474,390.515 276.468,392.373C276.444,396.963 280.095,400.71 284.665,400.837C289.213,400.747 292.911,396.992 292.932,392.443C292.936,390.585 292.329,388.777 291.204,387.299C291.554,387.346 291.907,387.37 292.261,387.372C296.921,387.392 300.714,383.631 300.731,378.974C300.755,374.316 296.988,370.524 292.331,370.504C290.085,370.491 287.924,371.38 286.338,372.97C286.346,372.873 286.355,372.777 286.362,372.677C286.815,368.461 290.242,365.541 290.242,365.541L284.817,365.519L279.392,365.495C279.392,365.495 282.792,368.443 283.196,372.664C283.209,372.762 283.221,372.86 283.223,372.957C281.652,371.354 279.501,370.446 277.256,370.439C272.627,370.418 268.8,374.209 268.778,378.838C268.763,383.495 272.52,387.287 277.178,387.307Z" style="fill:rgb(34,31,31);fill-rule:nonzero;"/>
    <path d="M31.178,27.084L26.32,22.836C28.338,19.841 31.39,18.344 35.475,18.344C37.755,18.344 39.748,18.873 41.457,19.93C43.167,20.988 44.02,22.559 44.02,24.642C44.02,26.124 43.56,27.365 42.641,28.366C41.721,29.366 40.098,30.372 37.771,31.381C40.065,31.739 41.872,32.621 43.191,34.03C44.508,35.437 45.168,37.175 45.168,39.242C45.168,42.172 44,44.585 41.664,46.481C39.329,48.377 36.728,49.325 33.864,49.325C31.764,49.341 29.934,48.853 28.371,47.86C26.808,46.867 25.726,45.582 25.124,44.003L30.714,39.681C30.714,44.597 32.098,47.055 34.865,47.055C36.086,47.038 37.115,46.521 37.953,45.504C38.791,44.487 39.211,43.213 39.211,41.683C39.227,39.73 38.681,37.981 37.575,36.433C36.468,34.888 35.036,33.887 33.278,33.431L32.961,32.04C36.671,30.347 38.527,27.946 38.527,24.838C38.527,23.601 38.218,22.592 37.599,21.81C36.981,21.029 36.151,20.639 35.109,20.639C33.921,20.639 32.952,21.184 32.204,22.274C31.455,23.364 31.114,24.968 31.178,27.084Z" style="fill-rule:nonzero;"/>
    <path d="M289.383,431.345L294.241,435.593C292.223,438.588 289.171,440.085 285.086,440.085C282.806,440.085 280.813,439.555 279.104,438.499C277.394,437.441 276.541,435.869 276.541,433.787C276.541,432.305 277.001,431.064 277.92,430.063C278.84,429.062 280.463,428.057 282.79,427.048C280.496,426.69 278.689,425.807 277.37,424.398C276.053,422.992 275.393,421.254 275.393,419.187C275.393,416.257 276.561,413.844 278.897,411.947C281.232,410.052 283.833,409.104 286.697,409.104C288.797,409.088 290.627,409.576 292.19,410.569C293.753,411.562 294.835,412.847 295.437,414.426L289.847,418.748C289.847,413.832 288.463,411.374 285.696,411.374C284.475,411.391 283.446,411.908 282.608,412.924C281.77,413.942 281.35,415.216 281.35,416.746C281.334,418.699 281.88,420.448 282.986,421.995C284.093,423.541 285.525,424.542 287.283,424.998L287.6,426.388C283.89,428.082 282.034,430.483 282.034,433.591C282.034,434.828 282.343,435.837 282.962,436.619C283.58,437.399 284.41,437.789 285.452,437.789C286.64,437.789 287.609,437.245 288.357,436.155C289.106,435.064 289.447,433.461 289.383,431.345Z" style="fill-rule:nonzero;"/>
</svg>
