<svg viewBox="0 0 321 459" xmlns="http://www.w3.org/2000/svg" fill-rule="evenodd" clip-rule="evenodd" stroke-linejoin="round" stroke-miterlimit="2"><path d="M294.261 1.672L28.947 0C14.459-.092 2.64 11.58 2.549 26.066L.001 430.458c-.092 14.488 11.579 26.305 26.066 26.397l265.314 1.673c14.488.09 26.306-11.582 26.397-26.07l2.549-404.387c.092-14.488-11.579-26.307-26.066-26.398z" fill="rgb(241,244,247)" fill-rule="nonzero"/><path d="M6.243 447.599c4.776 5.618 11.873 9.206 19.824 9.255l265.314 1.673c14.488.09 26.306-11.582 26.397-26.07l2.549-404.387a26.12 26.12 0 0 0-6.243-17.143L6.243 447.599z" fill="rgb(229,234,238)" fill-rule="nonzero"/><path d="M159.64 312.371l.899-142.555s14.797-28.804 39.03-23.523c29.798 6.495 36.789 39.04 26.392 72.288-14.128 45.187-66.321 93.79-66.321 93.79z" fill="rgb(209,39,40)" fill-rule="nonzero"/><path d="M200.537 156.902c23.267 7.725 27.59 25.469 29.287 44.1 3.303-26.45-5.773-49.373-30.254-54.709-24.234-5.281-39.031 23.524-39.031 23.524l-.037 5.886s19.754-25.534 40.035-18.801z" fill="rgb(244,128,99)" fill-rule="nonzero"/><path d="M159.64 312.372l.898-142.555s-14.433-28.99-38.731-24.015c-29.877 6.117-37.278 38.572-27.3 71.952 13.557 45.358 65.133 94.618 65.133 94.618z" fill="rgb(244,128,99)" fill-rule="nonzero"/><path d="M121.807 145.803c-23.888 4.892-33.394 26.623-31.152 52.198 2.073-17.819 7.135-34.457 29.607-41.604 20.364-6.477 39.796 19.303 39.796 19.303l.037-5.886-.1-1.013c-2.835-5.086-16.626-27.413-38.188-22.998z" fill="rgb(249,181,164)" fill-rule="nonzero"/><path d="M127.456 147.144a25.429 25.429 0 0 0-5.266.524c-10.373 2.125-18.251 7.576-23.411 16.201-7.793 13.026-8.685 32.467-2.447 53.338 12.06 40.352 55.254 84.516 63.324 92.513 8.171-7.894 51.918-51.51 64.487-91.708 6.501-20.79 5.854-40.24-1.775-53.362-5.052-8.691-12.859-14.24-23.204-16.496-22.496-4.903-36.79 22.259-36.932 22.535l-1.719 3.337-1.679-3.358c-.128-.255-11.934-23.4-31.378-23.523zm32.167 167.846l-1.3-1.241c-2.12-2.024-52.096-50.129-65.643-95.45-6.544-21.893-5.512-42.445 2.829-56.386 5.653-9.446 14.614-15.663 25.916-17.976 20.609-4.225 34.521 14.63 39.137 22.099 4.711-7.41 18.86-26.084 39.413-21.605 11.272 2.458 20.154 8.786 25.688 18.303 8.164 14.044 8.936 34.608 2.117 56.415-14.117 45.149-64.695 92.62-66.841 94.617l-1.316 1.224z" fill="rgb(172,31,35)" fill-rule="nonzero"/><path d="M44.868 55.648c-5.512-1.201-8.878 5.35-8.878 5.35s-3.282-6.593-8.808-5.462c-6.795 1.392-8.478 8.773-6.209 16.364 3.084 10.316 14.813 21.519 14.813 21.519s11.871-11.054 15.083-21.331c2.364-7.562.775-14.964-6.001-16.44z" fill="rgb(209,39,40)" fill-rule="nonzero"/><path d="M275.457 403.541c5.51 1.201 8.875-5.35 8.875-5.35s3.284 6.594 8.81 5.462c6.794-1.391 8.477-8.773 6.209-16.363-3.084-10.316-14.814-21.52-14.814-21.52s-11.87 11.055-15.083 21.331c-2.365 7.562-.775 14.963 6.003 16.44z" fill="rgb(209,39,40)" fill-rule="nonzero"/><path d="M130.991 283.747a346.716 346.716 0 0 1-4.898-6.156c-12.313-15.848-25.006-35.172-31.785-54.317l4.064.025c7.045 19.065 20.212 38.526 32.658 54.257l-.039 6.191z" fill="rgb(131,27,34)" fill-rule="nonzero"/><path d="M17.489 21.77v-2.197c3.548-.179 6.779-1.131 9.692-2.856h1.099v24.292c0 1.058.244 1.981.732 2.771.488.789 1.677 1.184 3.564 1.184v2.344H18.172v-2.295c2.849 0 4.273-1.384 4.273-4.151V24.92c0-2.1-1.188-3.15-3.565-3.15h-1.391z" fill="rgb(209,39,40)" fill-rule="nonzero"/><path d="M38.589 25.555l-4.859-4.248c2.019-2.995 5.07-4.493 9.156-4.493 2.278 0 4.272.529 5.981 1.587 1.709 1.058 2.563 2.629 2.563 4.712 0 1.481-.459 2.722-1.379 3.723-.92 1.001-2.543 2.006-4.871 3.015 2.295.359 4.102 1.242 5.42 2.649 1.319 1.408 1.978 3.146 1.978 5.213 0 2.929-1.168 5.342-3.504 7.239-2.335 1.896-4.935 2.844-7.8 2.844-2.099.016-3.93-.472-5.493-1.465-1.562-.993-2.645-2.279-3.247-3.857l5.591-4.322c0 4.916 1.383 7.373 4.15 7.373 1.221-.016 2.25-.533 3.089-1.55.838-1.017 1.257-2.291 1.257-3.821.016-1.953-.529-3.703-1.636-5.249-1.107-1.546-2.539-2.547-4.297-3.003l-.317-1.391c3.711-1.693 5.566-4.094 5.566-7.203 0-1.236-.309-2.246-.927-3.027-.619-.781-1.449-1.172-2.491-1.172-1.188 0-2.156.546-2.905 1.636-.749 1.091-1.09 2.694-1.025 4.81z" fill="rgb(209,39,40)" fill-rule="nonzero"/><path d="M301.434 437.45v2.197c-3.548.179-6.779 1.131-9.692 2.856h-1.099v-24.292c0-1.058-.244-1.981-.732-2.771-.488-.789-1.677-1.184-3.564-1.184v-2.344h14.404v2.295c-2.849 0-4.273 1.384-4.273 4.151V434.3c0 2.1 1.188 3.15 3.565 3.15h1.391z" fill="rgb(209,39,40)" fill-rule="nonzero"/><path d="M280.334 433.665l4.859 4.248c-2.019 2.995-5.07 4.493-9.156 4.493-2.278 0-4.272-.529-5.981-1.587-1.709-1.058-2.563-2.629-2.563-4.712 0-1.481.459-2.722 1.379-3.723.92-1.001 2.543-2.006 4.871-3.015-2.295-.359-4.102-1.242-5.42-2.649-1.319-1.408-1.978-3.146-1.978-5.213 0-2.929 1.168-5.342 3.504-7.239 2.335-1.896 4.935-2.844 7.8-2.844 2.099-.016 3.93.472 5.493 1.465 1.562.993 2.645 2.279 3.247 3.857l-5.591 4.322c0-4.916-1.383-7.373-4.15-7.373-1.221.016-2.25.533-3.089 1.55-.838 1.017-1.257 2.291-1.257 3.821-.016 1.953.529 3.703 1.636 5.249 1.107 1.546 2.539 2.547 4.297 3.003l.317 1.391c-3.711 1.693-5.566 4.094-5.566 7.203 0 1.236.309 2.246.927 3.027.619.781 1.449 1.172 2.491 1.172 1.188 0 2.156-.546 2.905-1.636.749-1.091 1.09-2.694 1.025-4.81z" fill="rgb(209,39,40)" fill-rule="nonzero"/></svg>