<svg viewBox="0 0 321 459" xmlns="http://www.w3.org/2000/svg" fill-rule="evenodd" clip-rule="evenodd" stroke-linejoin="round" stroke-miterlimit="2"><path d="M294.261 1.673L28.947 0C14.459-.091 2.64 11.58 2.549 26.067L.001 430.457c-.092 14.488 11.579 26.306 26.066 26.399l265.314 1.67c14.488.092 26.306-11.58 26.397-26.068l2.549-404.387c.092-14.488-11.579-26.307-26.066-26.398z" fill="rgb(241,244,247)" fill-rule="nonzero"/><path d="M6.243 447.599c4.776 5.618 11.873 9.206 19.824 9.257l265.314 1.67c14.488.092 26.306-11.58 26.397-26.068l2.549-404.387a26.12 26.12 0 0 0-6.243-17.143L6.243 447.598z" fill="rgb(229,234,238)" fill-rule="nonzero"/><path d="M159.64 312.372l.9-142.555s14.796-28.805 39.03-23.524c29.797 6.495 36.788 39.04 26.391 72.288-14.127 45.187-66.32 93.79-66.32 93.79z" fill="rgb(209,39,40)" fill-rule="nonzero"/><path d="M200.537 156.902c23.267 7.725 27.59 25.469 29.287 44.1 3.303-26.45-5.773-49.373-30.254-54.709-24.234-5.281-39.031 23.524-39.031 23.524l-.037 5.886s19.754-25.534 40.035-18.801z" fill="rgb(244,128,99)" fill-rule="nonzero"/><path d="M159.64 312.373l.899-142.555s-14.434-28.99-38.732-24.015c-29.877 6.117-37.277 38.572-27.3 71.952 13.557 45.358 65.134 94.618 65.134 94.618z" fill="rgb(244,128,99)" fill-rule="nonzero"/><path d="M121.807 145.803c-23.888 4.892-33.394 26.623-31.152 52.198 2.073-17.819 7.135-34.457 29.607-41.604 20.364-6.477 39.796 19.303 39.796 19.303l.037-5.886-.1-1.013c-2.835-5.086-16.626-27.413-38.188-22.998z" fill="rgb(249,181,164)" fill-rule="nonzero"/><path d="M127.456 147.145a25.429 25.429 0 0 0-5.266.524c-10.373 2.125-18.251 7.576-23.411 16.201-7.793 13.026-8.685 32.467-2.447 53.338 12.06 40.351 55.254 84.515 63.324 92.513 8.171-7.895 51.918-51.511 64.487-91.708 6.501-20.79 5.854-40.241-1.775-53.363-5.052-8.691-12.859-14.24-23.204-16.496-22.496-4.903-36.79 22.259-36.932 22.535l-1.719 3.337-1.679-3.358c-.128-.255-11.934-23.4-31.378-23.523zm32.167 167.846l-1.3-1.242c-2.12-2.024-52.096-50.128-65.643-95.45-6.544-21.893-5.512-42.444 2.829-56.386 5.653-9.446 14.614-15.663 25.916-17.976 20.609-4.224 34.521 14.631 39.137 22.099 4.711-7.409 18.86-26.084 39.413-21.604 11.272 2.457 20.154 8.785 25.688 18.302 8.164 14.045 8.936 34.608 2.117 56.416-14.117 45.148-64.695 92.619-66.841 94.616l-1.316 1.225z" fill="rgb(172,31,35)" fill-rule="nonzero"/><path d="M44.868 55.648c-5.512-1.201-8.878 5.35-8.878 5.35s-3.282-6.593-8.808-5.462c-6.795 1.392-8.479 8.773-6.209 16.364 3.084 10.316 14.813 21.519 14.813 21.519s11.871-11.054 15.083-21.331c2.364-7.562.775-14.964-6.001-16.44z" fill="rgb(209,39,40)" fill-rule="nonzero"/><path d="M130.991 283.748a346.716 346.716 0 0 1-4.898-6.156c-12.313-15.848-25.006-35.172-31.785-54.317l4.064.025c7.045 19.065 20.212 38.526 32.658 54.257l-.039 6.191z" fill="rgb(131,27,34)" fill-rule="nonzero"/><path d="M31.315 28.548l-5.103-4.199c2.083-4.737 5.55-7.105 10.4-7.105 2.165 0 4.175.594 6.031 1.782 1.855 1.188 2.783 3.028 2.783 5.518 0 2.832-1.457 5.745-4.37 8.74l-8.789 9.107h6.958c2.555 0 4.069-1.547 4.541-4.639h2.246l-1.245 10.132H25.968v-1.099c6.169-7.585 9.92-12.728 11.255-15.43 1.334-2.701 2.002-5.037 2.002-7.006 0-1.482-.346-2.621-1.038-3.418-.692-.798-1.599-1.197-2.722-1.197-1.351 0-2.429.554-3.235 1.66-.806 1.107-1.208 2.572-1.208 4.395 0 .911.097 1.831.293 2.759z" fill="rgb(209,39,40)" fill-rule="nonzero"/><path d="M277.111 403.271c5.512 1.201 8.877-5.35 8.877-5.35s3.283 6.593 8.809 5.462c6.795-1.392 8.478-8.773 6.209-16.364-3.084-10.316-14.813-21.519-14.813-21.519s-11.871 11.054-15.083 21.331c-2.364 7.562-.775 14.964 6.001 16.44z" fill="rgb(209,39,40)" fill-rule="nonzero"/><path d="M290.664 430.371l5.103 4.199c-2.084 4.737-5.55 7.105-10.401 7.105-2.164 0-4.174-.594-6.03-1.782-1.855-1.188-2.783-3.028-2.783-5.518 0-2.832 1.457-5.745 4.37-8.74l8.789-9.107h-6.958c-2.555 0-4.069 1.547-4.541 4.639h-2.246l1.245-10.132h18.799v1.099c-6.169 7.585-9.92 12.728-11.255 15.43-1.335 2.701-2.002 5.037-2.002 7.006 0 1.482.346 2.621 1.038 3.418.691.798 1.599 1.197 2.722 1.197 1.351 0 2.429-.554 3.235-1.66.805-1.107 1.208-2.572 1.208-4.395 0-.911-.097-1.831-.293-2.759z" fill="rgb(209,39,40)" fill-rule="nonzero"/></svg>