<svg viewBox="0 0 191 160" xmlns="http://www.w3.org/2000/svg" fill-rule="evenodd" clip-rule="evenodd" stroke-linejoin="round" stroke-miterlimit="2"><path d="M65.318 50.079A105.055 105.055 0 0 1 86.82 25.873c7.066-5.845 15.052-10.92 23.766-14.972 8.711-4.054 18.151-7.08 28.039-8.915a122.793 122.793 0 0 0-30.683-1.68c-10.466.736-21.063 2.83-31.428 6.312-17.818 5.964-34.921 16.09-49.55 29.846L0 26.893l17.722 95.996 74.283-63.337-26.687-9.473z" fill="white" fill-rule="nonzero"/><path d="M190.105 132.544l-17.723-95.996L98.1 99.884l26.688 9.473a105.062 105.062 0 0 1-21.503 24.206c-7.066 5.845-15.052 10.92-23.766 14.972-8.711 4.055-18.15 7.079-28.039 8.915a122.748 122.748 0 0 0 30.683 1.68c10.466-.736 21.064-2.83 31.427-6.311 17.82-5.964 34.921-16.091 49.551-29.847l26.964 9.572z" fill="white" fill-rule="nonzero"/></svg>