<svg viewBox="0 0 158 42" xmlns="http://www.w3.org/2000/svg" fill-rule="evenodd" clip-rule="evenodd" stroke-linejoin="round" stroke-miterlimit="2"><path d="M104.838 19.308a8.383 8.383 0 0 0-1.057.06 8.432 8.432 0 0 0-6.371-13.62 8.432 8.432 0 0 0-6.598 13.511 8.433 8.433 0 0 0-9.559 8.287 8.434 8.434 0 0 0 14.368 6.062l-.03.294c-.464 4.214-3.899 7.12-3.899 7.12l5.423.043 5.424.046s-3.387-2.962-3.779-7.183c-.01-.1-.018-.198-.026-.293a8.435 8.435 0 1 0 6.104-14.327z" fill="rgb(39,37,38)" fill-rule="nonzero"/><path d="M138.158 0l-15.505 20.397 15.163 20.653 15.507-20.397L138.158.001z" fill="rgb(183,70,89)" fill-rule="nonzero"/><path d="M64.963 3.35c-5.51-1.212-8.888 5.332-8.888 5.332s-3.27-6.6-8.798-5.48c-6.798 1.378-8.496 8.756-6.24 16.352 3.061 10.322 14.768 21.548 14.768 21.548s11.893-11.029 15.126-21.3c2.38-7.557.805-14.962-5.968-16.452z" fill="rgb(183,70,89)" fill-rule="nonzero"/><path d="M30.56 20.825c-1.582-3.974-6.698-9.437-8.123-11.101-5.307-6.195-6.45-9.396-6.45-9.396s-1.199 3.18-6.608 9.288C7.926 11.255 2.72 16.633 1.073 20.58-1.26 26.17.075 33.776 6.434 35.074c3.526.72 6.221-.847 7.78-2.167-.015.404-.043.84-.094 1.307-.464 4.215-3.899 7.119-3.899 7.119l5.423.045 5.423.045s-3.386-2.961-3.779-7.182a16.083 16.083 0 0 1-.07-1.31c1.535 1.347 4.203 2.959 7.74 2.298 6.38-1.193 7.842-8.774 5.602-14.404z" fill="rgb(39,37,38)" fill-rule="nonzero"/></svg>