<svg viewBox="0 0 225 232" xmlns="http://www.w3.org/2000/svg" fill-rule="evenodd" clip-rule="evenodd" stroke-linejoin="round" stroke-miterlimit="2"><path d="M57.352 55.734C74.083 39.397 96.67 30 120.483 30V0C83.998 0 49.678 16.551 26.911 44.685L0 34.917l15.145 85.42L81.556 64.52l-24.204-8.786z" fill="white" fill-rule="nonzero"/><path d="M90.438 171.84c-22.514-6.32-41.946-21.183-53.853-41.805l-25.98 15c18.241 31.596 49.736 53.043 85.484 58.693l4.996 28.189 66.403-55.826-81.544-29.605 4.494 25.354z" fill="white" fill-rule="nonzero"/><path d="M224.157 46.937l-81.548-29.594 15.133 85.422 19.71-16.568c5.784 22.658 2.629 46.918-9.277 67.54l25.98 15c18.243-31.596 21.068-69.595 8.087-103.378l21.915-18.422z" fill="white" fill-rule="nonzero"/></svg>